<svg xmlns="http://www.w3.org/2000/svg" width="197" height="96.276" viewBox="0 0 197 96.276">
  <g id="search" transform="translate(-4655.8 -9510.472)">
    <path id="Subtraction_1" data-name="Subtraction 1" d="M158.073,85H38.226a8.781,8.781,0,0,1-5.708-15.454H8.781a8.781,8.781,0,1,1,0-17.563H59.924a8.781,8.781,0,0,0,0-17.562H29.462a8.43,8.43,0,0,1,0-16.86H53.649A8.781,8.781,0,0,1,53.649,0h134.57a8.781,8.781,0,1,1,0,17.562H148.643a8.43,8.43,0,0,0,0,16.86h12.935a8.781,8.781,0,1,1,0,17.562H131.117a8.43,8.43,0,0,0,0,16.86h31.723A8.782,8.782,0,0,1,158.073,85Zm23.854-33.016a8.781,8.781,0,1,1,8.763-8.78A8.782,8.782,0,0,1,181.927,51.983Z" transform="translate(4655.8 9512.957)" fill="#f5f5f5"/>
    <path id="Path_75" data-name="Path 75" d="M441.159,203.157a2.289,2.289,0,0,0,0,4.578A2.289,2.289,0,1,0,441.159,203.157Z" transform="translate(4398.508 9364.228)" fill="#009b93"/>
    <g id="loupe" transform="translate(4693.384 9510.472)">
      <ellipse id="Ellipse_3" data-name="Ellipse 3" cx="31.5" cy="32" rx="31.5" ry="32" transform="translate(32.416 0.486)" fill="none"/>
      <rect id="Rectangle_88" data-name="Rectangle 88" width="40.456" height="12.066" rx="6.033" transform="matrix(0.695, -0.719, 0.719, 0.695, 0, 87.894)" fill="#fff"/>
      <path id="Path_60" data-name="Path 60" d="M62.726,0A32.946,32.946,0,0,0,36.48,52.885L29.8,59.563a1.576,1.576,0,0,0-.118.133A8.229,8.229,0,0,0,28,59.522a8.111,8.111,0,0,0-5.773,2.392L2.391,81.755A8.164,8.164,0,1,0,13.937,93.3L33.778,73.458a8.108,8.108,0,0,0,2.391-5.772,8.232,8.232,0,0,0-.174-1.68,1.535,1.535,0,0,0,.133-.117l6.678-6.678A32.959,32.959,0,1,0,62.726,0ZM11.745,91.107a5.063,5.063,0,1,1-7.161-7.16L22.5,66.029l7.161,7.161Zm20.1-20.121L24.707,63.85a5.06,5.06,0,0,1,7.136,7.136Zm2.822-8.02a8.141,8.141,0,0,0-1.942-1.941l5.754-5.754q.93,1.01,1.941,1.941Zm28.06-.137A29.865,29.865,0,1,1,92.591,32.965,29.9,29.9,0,0,1,62.726,62.829Z" transform="translate(0.618 0)" fill="#009b93"/>
    </g>
    <rect id="Rectangle_54" data-name="Rectangle 54" width="26" height="4" rx="2" transform="translate(4680.8 9532.957)" fill="#009b93"/>
    <rect id="Rectangle_55" data-name="Rectangle 55" width="28" height="4" rx="2" transform="translate(4804.8 9566.957)" fill="#009b93"/>
    <rect id="Rectangle_56" data-name="Rectangle 56" width="13" height="4" rx="2" transform="translate(4661.8 9532.957)" fill="#009b93"/>
    <rect id="Rectangle_57" data-name="Rectangle 57" width="12" height="4" rx="2" transform="translate(4798.8 9552.957)" fill="#009b93"/>
    <rect id="Rectangle_58" data-name="Rectangle 58" width="15" height="4" rx="2" transform="translate(4697.8 9544.957)" fill="#009b93"/>
    <path id="Path_94" data-name="Path 94" d="M0,0V9.5" transform="translate(4748.314 9539.099) rotate(45)" fill="none" stroke="#009b93" stroke-linecap="round" stroke-width="3"/>
    <path id="Path_98" data-name="Path 98" d="M4277.5,10602.688a12.533,12.533,0,0,1,7.407-2.686,12.248,12.248,0,0,1,7.346,2.686" transform="translate(470.814 -1044.178)" fill="none" stroke="#009b93" stroke-linecap="round" stroke-width="3"/>
    <path id="Path_100" data-name="Path 100" d="M0,0V9.5" transform="translate(4771.025 9539.099) rotate(45)" fill="none" stroke="#009b93" stroke-linecap="round" stroke-width="3"/>
    <path id="Path_95" data-name="Path 95" d="M0,0V9.5" transform="translate(4748.314 9545.815) rotate(135)" fill="none" stroke="#009b93" stroke-linecap="round" stroke-width="3"/>
    <path id="Path_99" data-name="Path 99" d="M0,0V9.5" transform="translate(4771.026 9545.815) rotate(135)" fill="none" stroke="#009b93" stroke-linecap="round" stroke-width="3"/>
  </g>
</svg>
