<svg id="economy" xmlns="http://www.w3.org/2000/svg" width="64.81" height="64.811" viewBox="0 0 64.81 64.811">
  <path id="Path_11261" data-name="Path 11261" d="M23.176,14.073a1.678,1.678,0,0,1-.935-.283l-.943-.629a3.771,3.771,0,0,0-4.2,0l-.415.276a3.785,3.785,0,0,0,2.1,6.934h.331a1.674,1.674,0,0,1,1.191.493l.415.415a3.789,3.789,0,0,0,5.351,0l.415-.415A3.755,3.755,0,0,0,27.6,18.189v-.331a3.788,3.788,0,0,0-3.784-3.785ZM25.5,17.857v.331A1.674,1.674,0,0,1,25,19.379l-.415.415a1.727,1.727,0,0,1-2.384,0l-.415-.415a3.758,3.758,0,0,0-2.675-1.107h-.331a1.685,1.685,0,0,1-.935-3.087l.415-.276a1.679,1.679,0,0,1,1.869,0l.943.629a3.773,3.773,0,0,0,2.1.635h.635A1.687,1.687,0,0,1,25.5,17.857Z" transform="translate(-0.38 -0.487)" fill="#009b93"/>
  <path id="Path_11262" data-name="Path 11262" d="M64.765,34.451H58.493V19.816h1.045a1.045,1.045,0,0,0,.739-1.784L56.1,13.85a1.044,1.044,0,0,0-1.478,0l-4.181,4.181a1.045,1.045,0,0,0,.739,1.784h1.045V53.267a1.046,1.046,0,0,0,1.045,1.045h4.181a1.046,1.046,0,0,0,1.045-1.045V39.677h2.091V56.4H29.224V39.677h2.091V53.267a1.046,1.046,0,0,0,1.045,1.045h4.181a1.046,1.046,0,0,0,1.045-1.045V32.36h1.045a1.045,1.045,0,0,0,.739-1.784L35.19,26.394a1.044,1.044,0,0,0-1.478,0L29.53,30.576a1.045,1.045,0,0,0,.739,1.784h1.045v2.091H25.043A1.046,1.046,0,0,0,24,35.5v7.266c-.349.018-.7.051-1.045.051A19.8,19.8,0,0,1,8.125,36.121l1.328-1.328a3.242,3.242,0,0,0,.955-2.307v-1.3a1.167,1.167,0,0,1,.343-.829l1.838-1.838a3.242,3.242,0,0,0,.955-2.307v-1.3a3.242,3.242,0,0,0-.955-2.307l-.792-.792a1.167,1.167,0,0,1-.343-.829V19.942A3.266,3.266,0,0,0,8.191,16.68a1.167,1.167,0,0,1-.829-.343L5.174,14.149c.259-.522.54-1.028.843-1.522a4.566,4.566,0,0,0,2.734.917h.18a4.581,4.581,0,0,0,3.262-1.352l1.045-1.045a2.543,2.543,0,0,1,1.784-.739h1.225A4.581,4.581,0,0,0,19.51,9.056a2.543,2.543,0,0,1,1.784-.739h.18A4.615,4.615,0,0,0,26.088,3.7V3.352a19.8,19.8,0,0,1,4.181,1.16V6.838A4.581,4.581,0,0,0,31.621,10.1a2.547,2.547,0,0,1,.739,1.785v.18a4.615,4.615,0,0,0,4.614,4.614h.18a4.581,4.581,0,0,0,3.262-1.352l.6-.6a19.573,19.573,0,0,1,1.4,4.249l2.049-.415a21.935,21.935,0,0,0-39.941-7.5l-.082.082.02.02A21.915,21.915,0,0,0,22.952,44.9c.349,0,.7-.036,1.045-.051V60.584a1.046,1.046,0,0,0,1.045,1.045H35.5V63.72H33.405V65.81h23V63.72H54.312V61.629H64.765a1.046,1.046,0,0,0,1.045-1.045V35.5A1.046,1.046,0,0,0,64.765,34.451ZM56.4,18.771V52.221H54.312V18.771a1.047,1.047,0,0,0-.678-.979l1.724-1.724,1.724,1.724A1.047,1.047,0,0,0,56.4,18.771ZM34.451,28.611l1.724,1.724a1.047,1.047,0,0,0-.678.979V52.221H33.405V31.315a1.047,1.047,0,0,0-.678-.979ZM40,12.784,38.938,13.85a2.543,2.543,0,0,1-1.784.739h-.18a2.523,2.523,0,0,1-2.523-2.523v-.18A4.581,4.581,0,0,0,33.1,8.624a2.543,2.543,0,0,1-.739-1.784V5.488A19.994,19.994,0,0,1,40,12.784ZM22.952,3.091c.351,0,.7.028,1.045.046V3.7a2.523,2.523,0,0,1-2.523,2.523h-.18a4.581,4.581,0,0,0-3.262,1.352,2.543,2.543,0,0,1-1.784.739H15.022A4.581,4.581,0,0,0,11.76,9.669l-1.045,1.045a2.543,2.543,0,0,1-1.784.739H8.75A2.535,2.535,0,0,1,7.2,10.9,19.818,19.818,0,0,1,22.952,3.091ZM4.29,16.221l1.594,1.594a3.242,3.242,0,0,0,2.307.955,1.173,1.173,0,0,1,1.172,1.172v1.045a3.242,3.242,0,0,0,.955,2.307l.792.792a1.167,1.167,0,0,1,.343.829v1.3a1.167,1.167,0,0,1-.343.829L9.273,28.881a3.242,3.242,0,0,0-.955,2.307v1.3a1.167,1.167,0,0,1-.343.829L6.81,34.48A19.642,19.642,0,0,1,4.29,16.221Zm47.932,47.5H37.587V61.629H52.221Zm11.5-4.181H26.088v-23h5.227v1.045H28.179a1.046,1.046,0,0,0-1.045,1.045V57.448a1.046,1.046,0,0,0,1.045,1.045H61.629a1.046,1.046,0,0,0,1.045-1.045V38.632a1.046,1.046,0,0,0-1.045-1.045H58.493V36.541H63.72Z" transform="translate(-1 -1)" fill="#009b93"/>
  <path id="Path_11263" data-name="Path 11263" d="M38.308,23.506A1.049,1.049,0,0,0,39.05,25.3H40.1V52.589a1.05,1.05,0,0,0,1.05,1.05h4.2a1.05,1.05,0,0,0,1.05-1.05V25.3h1.05a1.049,1.049,0,0,0,.742-1.792l-4.2-4.2a1.048,1.048,0,0,0-1.484,0Zm6.672-.241a1.051,1.051,0,0,0-.681.984V51.539H42.2V24.248a1.051,1.051,0,0,0-.681-.984l1.731-1.731Z" transform="translate(0.646 -0.273)" fill="#009b93"/>
</svg>
