<svg xmlns="http://www.w3.org/2000/svg" width="64.811" height="50.337" viewBox="0 0 64.811 50.337">
  <g id="Icons" transform="translate(0)">
    <path id="Path_11278" data-name="Path 11278" d="M38.921,64.767H36.243a.923.923,0,0,1,0-1.847h2.678a.923.923,0,0,1,0,1.847Z" transform="translate(-4.551 -14.433)" fill="#009b93"/>
    <path id="Path_11279" data-name="Path 11279" d="M57.517,61.971H52.475a.923.923,0,0,1,0-1.847h5.042a7.706,7.706,0,1,0,0-15.412h-.628a.923.923,0,0,1-.923-.99c.027-.382.053-.731.053-1.1a14.359,14.359,0,0,0-26.6-7.512.932.932,0,0,1-.831.438l-.2-.013c-.1-.006-.207-.014-.31-.014a9.865,9.865,0,0,0-9.706,8.4.923.923,0,0,1-.913.79h-.222a7.706,7.706,0,1,0,0,15.412H27.663a.923.923,0,0,1,0,1.847H17.237a9.553,9.553,0,0,1-.554-19.09,11.727,11.727,0,0,1,11.395-9.2h.066a16.205,16.205,0,0,1,29.723,8.948v.247a9.552,9.552,0,1,1-.351,19.1Z" transform="translate(-2.434 -11.636)" fill="#009b93"/>
    <path id="Path_11280" data-name="Path 11280" d="M48.886,64.767H46.143a.923.923,0,1,1,0-1.847h2.743a.923.923,0,0,1,0,1.847Z" transform="translate(-5.309 -14.433)" fill="#009b93"/>
    <path id="Path_11281" data-name="Path 11281" d="M2.923,29.917a.942.942,0,0,1-.134-.009.923.923,0,0,1-.78-1.046,21.557,21.557,0,0,1,24.4-18.228.924.924,0,0,1-.266,1.828A19.717,19.717,0,0,0,3.837,29.126.923.923,0,0,1,2.923,29.917Z" transform="translate(-1.999 -10.411)" fill="#009b93"/>
    <path id="Path_11282" data-name="Path 11282" d="M10.071,31.426a.939.939,0,0,1-.137-.009.923.923,0,0,1-.781-1.046A14.882,14.882,0,0,1,26,17.787a.923.923,0,1,1-.265,1.828,13.034,13.034,0,0,0-14.752,11.02.923.923,0,0,1-.913.791Z" transform="translate(-2.547 -10.964)" fill="#009b93"/>
    <path id="Path_11283" data-name="Path 11283" d="M17.223,32.93a.941.941,0,0,1-.134-.009.923.923,0,0,1-.78-1.046A8.209,8.209,0,0,1,25.6,24.935a.923.923,0,1,1-.265,1.828,6.361,6.361,0,0,0-7.2,5.376.923.923,0,0,1-.912.791Z" transform="translate(-3.095 -11.517)" fill="#009b93"/>
  </g>
</svg>
