<svg xmlns="http://www.w3.org/2000/svg" width="64.811" height="64.099" viewBox="0 0 64.811 64.099"><defs><style>.a{fill:#009b93;}</style></defs><g transform="translate(0)"><g transform="translate(0 0)"><path class="a" d="M61.089,263.429H52.818l-3.1-10.339H42.479l-3.1-10.339H23.365l-3.1,10.339H13.027l-3.1,10.339h-6.2L0,275.835h64.81ZM43.1,255.158h5.078l2.481,8.271h-17.9l2.481-8.271Zm-11.728,5.707-1.712-5.707h3.424ZM24.9,244.82H37.839l2.481,8.271h-17.9ZM14.565,255.158H27.5l2.481,8.271h-17.9ZM2.779,273.768,5.26,265.5H18.2l2.481,8.271ZM22.067,271.2,20.355,265.5h3.424Zm1.39,2.564,2.481-8.271H38.873l2.481,8.271ZM42.744,271.2,41.032,265.5h3.424Zm3.871-5.707H59.55l2.481,8.271h-17.9Z" transform="translate(0 -211.736)"/><path class="a" d="M152.192,29.632a13.44,13.44,0,1,0-13.44-13.44A13.456,13.456,0,0,0,152.192,29.632Zm0-24.813A11.372,11.372,0,1,1,140.82,16.192,11.386,11.386,0,0,1,152.192,4.82Z" transform="translate(-120.821 -2.752)"/><path class="a" d="M206.887,51.294v2.068h2.068V51.294a4.135,4.135,0,0,0,0-8.271h-2.068a2.068,2.068,0,1,1,0-4.135h2.068a2.07,2.07,0,0,1,2.068,2.068V41.4h2.068v-.444a4.14,4.14,0,0,0-4.135-4.135V34.752h-2.068V36.82a4.135,4.135,0,1,0,0,8.271h2.068a2.068,2.068,0,0,1,0,4.135h-2.068a2.07,2.07,0,0,1-2.068-2.068v-.444h-2.068v.444A4.14,4.14,0,0,0,206.887,51.294Z" transform="translate(-176.55 -30.617)"/><path class="a" d="M17.226,162.752H2.752v14.474H17.226Zm-2.068,12.406H4.82V164.82H15.158Z" transform="translate(-2.396 -142.075)"/><rect class="a" width="6.203" height="2.068" transform="translate(4.491 24.813)"/><rect class="a" width="6.203" height="2.068" transform="translate(4.491 28.948)"/><path class="a" d="M52.82,100.82h7.237V98.752h-9.3v6.2H52.82Z" transform="translate(-44.193 -86.346)"/><path class="a" d="M401.226,98.752H386.752v14.474h14.474Zm-2.068,12.406H388.82V100.82h10.339Z" transform="translate(-336.771 -86.346)"/><rect class="a" width="6.203" height="2.068" transform="translate(54.116 20.677)"/><rect class="a" width="6.203" height="2.068" transform="translate(54.116 16.542)"/><path class="a" d="M388.057,226.752h-2.068v4.135h-7.237v2.068h9.3Z" transform="translate(-329.805 -197.804)"/></g></g></svg>